<?xml version="1.0" encoding="UTF-8" standalone="no"?>
<!DOCTYPE svg PUBLIC "-//W3C//DTD SVG 1.1//EN" "http://www.w3.org/Graphics/SVG/1.1/DTD/svg11.dtd">
<svg xmlns="http://www.w3.org/2000/svg" version="1.1" viewBox="0.00 0.00 500.00 500.00">
<path fill="#ffffff" d="
  M 191.81 163.20
  L 229.23 263.57
  A 0.32 0.32 0.0 0 1 228.93 264.00
  L 210.55 263.99
  A 0.32 0.32 0.0 0 1 210.25 263.78
  L 172.79 163.31
  A 0.32 0.32 0.0 0 1 173.09 162.88
  L 191.51 162.99
  A 0.32 0.32 0.0 0 1 191.81 163.20
  Z"
/>
<path fill="#ff3231" d="
  M 231.41 263.55
  L 268.89 163.08
  A 0.34 0.34 0.0 0 1 269.21 162.86
  L 287.58 162.86
  A 0.34 0.34 0.0 0 1 287.90 163.32
  L 250.41 263.77
  A 0.34 0.34 0.0 0 1 250.09 263.99
  L 231.73 264.01
  A 0.34 0.34 0.0 0 1 231.41 263.55
  Z"
/>
<path fill="#ffffff" d="
  M 321.19 225.34
  Q 324.40 224.61 321.17 223.95
  C 310.18 221.73 306.14 215.92 306.42 204.99
  Q 306.68 195.02 306.36 186.54
  C 306.12 180.39 300.72 178.48 295.20 178.51
  Q 294.47 178.51 294.47 177.78
  L 294.48 163.48
  Q 294.48 162.90 295.05 162.90
  C 302.44 162.95 310.48 163.32 316.97 166.51
  C 323.23 169.58 324.68 175.83 324.71 182.25
  Q 324.74 190.32 324.74 205.18
  C 324.75 214.85 334.46 216.34 341.80 216.45
  Q 342.38 216.45 342.38 217.03
  L 342.41 232.52
  A 0.48 0.48 0.0 0 1 341.91 233.00
  C 334.04 232.71 324.76 235.03 324.75 244.70
  Q 324.73 255.51 324.77 265.03
  C 324.82 274.92 322.83 281.77 312.33 284.53
  Q 304.78 286.51 295.04 286.32
  Q 294.48 286.30 294.48 285.75
  L 294.48 271.46
  Q 294.48 270.73 295.22 270.75
  C 300.82 270.84 306.15 268.89 306.38 262.24
  Q 306.67 253.59 306.42 243.22
  Q 306.26 236.79 307.79 233.71
  C 310.37 228.54 315.52 226.63 321.19 225.34
  Z"
/>
<path fill="#ffffff" d="
  M 138.26 225.13
  C 144.30 226.26 150.09 228.23 152.72 233.70
  Q 154.25 236.88 154.10 242.38
  Q 153.83 252.39 154.13 261.71
  C 154.36 268.71 159.22 270.53 165.38 270.80
  Q 166.03 270.83 166.03 271.49
  L 166.05 285.96
  Q 166.05 286.32 165.69 286.32
  Q 159.09 286.46 151.93 285.30
  C 141.38 283.58 135.77 278.04 135.91 267.08
  Q 136.06 255.92 135.92 245.44
  C 135.79 235.94 127.06 232.58 118.91 233.02
  Q 118.13 233.06 118.13 232.28
  L 118.14 217.04
  Q 118.14 216.45 118.73 216.44
  C 126.36 216.31 135.71 214.34 135.90 204.72
  Q 136.08 195.34 135.89 185.98
  Q 135.74 177.93 137.15 174.13
  Q 139.96 166.58 149.58 164.47
  Q 157.40 162.75 165.60 162.99
  Q 166.13 163.01 166.13 163.54
  L 166.13 177.56
  Q 166.13 178.49 165.20 178.50
  C 159.22 178.53 154.20 180.78 154.11 187.74
  Q 153.95 199.58 154.03 208.77
  C 154.11 217.88 146.78 222.97 138.56 224.02
  Q 138.15 224.07 137.94 224.42
  A 0.48 0.47 21.0 0 0 138.26 225.13
  Z"
/>
<rect fill="#ffffff" x="344.50" y="276.76" width="58.74" height="9.62" rx="0.45"/>
</svg>
